<svg xmlns="http://www.w3.org/2000/svg" width="1200" height="280" viewBox="0 0 1200 280" role="img" aria-labelledby="title desc">
<title id="title">Lucas Gabriel — Full Stack Developer</title><desc id="desc">Banner roxo com uma cobrinha pixelada e o convite para jogar.</desc>
<defs><linearGradient id="bg" x2="1" y2="1"><stop stop-color="#100824"/><stop offset=".55" stop-color="#271052"/><stop offset="1" stop-color="#4c1d95"/></linearGradient><pattern id="grid" width="28" height="28" patternUnits="userSpaceOnUse"><path d="M28 0H0V28" fill="none" stroke="#c4b5fd" stroke-opacity=".09"/></pattern></defs>
<rect width="1200" height="280" rx="22" fill="url(#bg)"/><rect width="1200" height="280" rx="22" fill="url(#grid)"/>
<circle cx="1042" cy="52" r="92" fill="#a78bfa" opacity=".07"/><circle cx="981" cy="230" r="112" fill="#a78bfa" opacity=".08"/>
<text x="72" y="113" fill="#fff" font-family="Verdana,DejaVu Sans,sans-serif" font-size="47" font-weight="700">Lucas Gabriel</text>
<text x="74" y="154" fill="#c4b5fd" font-family="Verdana,DejaVu Sans,sans-serif" font-size="21">Full Stack Developer  •  Backend  •  Segurança</text>
<rect x="72" y="183" width="274" height="48" rx="12" fill="#8b5cf6"/><text x="97" y="214" fill="white" font-family="Verdana,DejaVu Sans,sans-serif" font-size="17" font-weight="700">▶ JOGUE SNAKE ABAIXO</text>
<path d="M796 179H824V151H852V123H880V95H908V123H936V151H964V179H992V151H1020" fill="none" stroke="#4c1d95" stroke-width="37" stroke-linejoin="round" stroke-linecap="round"/>
<path d="M796 179H824V151H852V123H880V95H908V123H936V151H964V179H992V151H1020" fill="none" stroke="#a78bfa" stroke-width="27" stroke-linejoin="round" stroke-linecap="round"/>
<rect x="1006" y="137" width="27" height="27" rx="7" fill="#ddd6fe"/><rect x="1015" y="143" width="5" height="5" fill="#30105e"/><rect x="1024" y="143" width="5" height="5" fill="#30105e"/>
<rect x="1091" y="100" width="18" height="18" rx="4" fill="#fb7185"/><rect x="1082" y="118" width="9" height="9" rx="2" fill="#fda4af"/>
</svg>